<svg xmlns="http://www.w3.org/2000/svg" viewBox="0 0 274.96 90"><g id="Layer_2" data-name="Layer 2"><g id="Layer_2-2" data-name="Layer 2"><path d="M64.2,9.6a5.25,5.25,0,0,1,3.06,4.08,6.3,6.3,0,0,1-1.38,5,4.77,4.77,0,0,1-3.42,2,7,7,0,0,1-4.14-.84A38.69,38.69,0,0,0,51,17,30,30,0,0,0,42.84,16a32.4,32.4,0,0,0-12.3,2.22,26.88,26.88,0,0,0-9.42,6.36,28.2,28.2,0,0,0-6.06,9.78A35.52,35.52,0,0,0,13,46.8a36.5,36.5,0,0,0,2.28,13.38A28.31,28.31,0,0,0,21.54,70,25.55,25.55,0,0,0,31,76a34.42,34.42,0,0,0,11.82,2,33.26,33.26,0,0,0,8-1,30.1,30.1,0,0,0,7.38-2.88,7.12,7.12,0,0,1,4.26-.78,5,5,0,0,1,3.42,2.1,6,6,0,0,1,1.5,5.1,5.55,5.55,0,0,1-3.06,3.9,38.2,38.2,0,0,1-6.6,2.88,57.94,57.94,0,0,1-7.32,1.92,39.69,39.69,0,0,1-7.56.72,46.09,46.09,0,0,1-16.32-2.88,41.57,41.57,0,0,1-13.68-8.4A38.76,38.76,0,0,1,3.42,65.16,46.53,46.53,0,0,1,0,46.8,45.17,45.17,0,0,1,3.18,29.7a39.44,39.44,0,0,1,9-13.56A41.8,41.8,0,0,1,25.8,7.26a44.71,44.71,0,0,1,17-3.18A43.81,43.81,0,0,1,54.06,5.52,42.7,42.7,0,0,1,64.2,9.6Z"/><path d="M80.52,82.68a5.93,5.93,0,0,0,1.73,4.38,6.08,6.08,0,0,0,8.52,0,6,6,0,0,0,1.75-4.38v-39l-12,18.79ZM90.9,1.74A5.56,5.56,0,0,0,86.64,0a6,6,0,0,0-4.32,1.74,5.8,5.8,0,0,0-1.8,4.38V47.64l12-18.78V6.12A6.18,6.18,0,0,0,90.9,1.74Z"/><path d="M115.56,17.28q-3.5,0-5-1.26T109,11.76V9.84c0-2,.55-3.4,1.68-4.2a8.68,8.68,0,0,1,5-1.2q3.6,0,5.16,1.26a5,5,0,0,1,1.56,4.14v1.92q0,3.12-1.62,4.32T115.56,17.28Zm6.12,65.4A6.05,6.05,0,0,1,120,87.06a6.16,6.16,0,0,1-8.58,0,5.94,5.94,0,0,1-1.74-4.38V31.32a5.94,5.94,0,0,1,1.74-4.38,6.16,6.16,0,0,1,8.58,0,6.05,6.05,0,0,1,1.68,4.38Z"/><path d="M165.84,24.24a43.73,43.73,0,0,1,11.52,1.38,19.84,19.84,0,0,1,7.86,3.84,7.42,7.42,0,0,1,2.82,5.7,6.6,6.6,0,0,1-1.2,3.78,4.09,4.09,0,0,1-3.6,1.74,6,6,0,0,1-2.82-.6,10.56,10.56,0,0,1-2.1-1.44,16.06,16.06,0,0,0-2.4-1.68,13.79,13.79,0,0,0-3.9-1.2,25.71,25.71,0,0,0-4.62-.48,20.29,20.29,0,0,0-11,2.88,19.76,19.76,0,0,0-7.2,7.8,23.55,23.55,0,0,0-2.58,11.16,23.55,23.55,0,0,0,2.58,11.16,20.14,20.14,0,0,0,7.08,7.8A19,19,0,0,0,166.8,79a26.26,26.26,0,0,0,5.88-.54,18.68,18.68,0,0,0,4-1.38,19.53,19.53,0,0,0,3.06-2.22,5.07,5.07,0,0,1,3.54-1.14,5,5,0,0,1,4,1.62,6,6,0,0,1,1.38,4c0,1.76-1.07,3.46-3.18,5.1a25.84,25.84,0,0,1-8.46,4A41.07,41.07,0,0,1,165.36,90a30,30,0,0,1-16.26-4.32,29.11,29.11,0,0,1-10.68-11.76,36.56,36.56,0,0,1-3.78-16.8,35.1,35.1,0,0,1,4-16.86,30.09,30.09,0,0,1,11-11.7A30.43,30.43,0,0,1,165.84,24.24Z"/><path d="M220.64,68.85H200.75v20h-3.6V46.14h26.42v3H200.75V65.8h19.89Z"/><path d="M235.29,88.8h-3.6V46.14h3.6Z"/><path d="M275,49.19H260.34V88.8h-3.6V49.19H242.15v-3H275Z"/></g></g></svg>