<svg xmlns="http://www.w3.org/2000/svg" viewBox="0 0 353.95 132.3"><g id="Layer_2" data-name="Layer 2"><g id="Layer_1-2" data-name="Layer 1"><path d="M0,49V46a5.62,5.62,0,0,0,3.25-1,3.9,3.9,0,0,0,1.27-2.47,26.4,26.4,0,0,0,.27-4.17V9.93c0-1,0-2,.07-2.91S5,5.27,5,4.59l-2.54.14L0,4.86V1.1H16.85v3A5.19,5.19,0,0,0,13.63,5a3.91,3.91,0,0,0-1.3,2.47,25.14,25.14,0,0,0-.28,4.21V22.87H34.72V9.93c0-1,0-2,.07-2.91s.09-1.75.13-2.43l-2.53.14-2.47.13V1.1H46.77v3A5.23,5.23,0,0,0,43.55,5a4,4,0,0,0-1.3,2.47A26.43,26.43,0,0,0,42,11.71V39.85c0,1.24,0,2.34,0,3.32a19,19,0,0,1-.17,2.37c.78-.09,1.62-.15,2.53-.17s1.74-.06,2.47-.11V49H29.92V46a5.68,5.68,0,0,0,3.26-1,3.89,3.89,0,0,0,1.26-2.47,25.1,25.1,0,0,0,.28-4.17v-12l-22.67.21V39.85c0,1.24,0,2.34,0,3.32a21.15,21.15,0,0,1-.17,2.37c.77-.09,1.63-.15,2.56-.17s1.75-.06,2.44-.11V49Z"/><path d="M70.87,4.11A5.23,5.23,0,0,0,67.65,5a4,4,0,0,0-1.3,2.47,26.43,26.43,0,0,0-.27,4.21V39.85c0,1.24,0,2.34,0,3.32a18.7,18.7,0,0,1-.18,2.37c.78-.09,1.64-.15,2.57-.17s1.75-.06,2.43-.11V49H54V46a5.64,5.64,0,0,0,3.25-1,4,4,0,0,0,1.27-2.47,26.4,26.4,0,0,0,.27-4.17V9.93c0-1,0-2,.07-2.91S59,5.27,59,4.59l-2.54.14L54,4.86V1.1H70.87Z"/><path d="M100,50.13a24.24,24.24,0,0,1-12.25-3,20.67,20.67,0,0,1-8.15-8.45A26.81,26.81,0,0,1,76.76,26a30.59,30.59,0,0,1,1.47-9.38,26.39,26.39,0,0,1,4.46-8.35,21.52,21.52,0,0,1,7.46-6A23.13,23.13,0,0,1,100.59,0a29.28,29.28,0,0,1,4.73.41,29.62,29.62,0,0,1,4.82,1.23,21.93,21.93,0,0,1,4.28,2L114.15.48h4.25V16.23h-3.15a14.13,14.13,0,0,0-2.3-7A12.7,12.7,0,0,0,108,5a15.31,15.31,0,0,0-6.74-1.47A13.73,13.73,0,0,0,94.6,5.1a16.21,16.21,0,0,0-5.17,4.45A21.23,21.23,0,0,0,86,16.23a27.41,27.41,0,0,0-1.2,8.22,28.3,28.3,0,0,0,2.09,11.19,18.14,18.14,0,0,0,5.92,7.71,14.8,14.8,0,0,0,9,2.8,23.8,23.8,0,0,0,3.6-.3,25.21,25.21,0,0,0,3.9-1,15.77,15.77,0,0,0,3.53-1.68V35.54q0-1.71,0-3.39c0-1.12,0-2.16,0-3.12-.73,0-1.55.1-2.47.14s-1.71.09-2.39.14V25.54h16.36v3a4.25,4.25,0,0,0-2.63.75,4.2,4.2,0,0,0-1.44,1.88,9,9,0,0,0-.58,2.4,20,20,0,0,0-.14,2.36V46.63h-1.78a15,15,0,0,0-3.36.45,37,37,0,0,0-4.31,1.33,29.61,29.61,0,0,1-4.86,1.24A31.69,31.69,0,0,1,100,50.13Z"/><path d="M129.42,49V46a5.62,5.62,0,0,0,3.25-1,3.9,3.9,0,0,0,1.27-2.47,26.4,26.4,0,0,0,.27-4.17V9.93c0-1,0-2,.07-2.91s.09-1.75.14-2.43l-2.54.14-2.46.13V1.1h16.85v3a5.19,5.19,0,0,0-3.22.92,3.91,3.91,0,0,0-1.3,2.47,25.14,25.14,0,0,0-.28,4.21V22.87h22.67V9.93c0-1,0-2,.07-2.91s.09-1.75.13-2.43l-2.53.14-2.47.13V1.1h16.85v3A5.23,5.23,0,0,0,173,5a4,4,0,0,0-1.3,2.47,26.43,26.43,0,0,0-.27,4.21V39.85c0,1.24,0,2.34,0,3.32a19,19,0,0,1-.17,2.37c.78-.09,1.62-.15,2.54-.17s1.73-.06,2.46-.11V49H159.34V46a5.65,5.65,0,0,0,3.26-1,3.89,3.89,0,0,0,1.26-2.47,25.1,25.1,0,0,0,.28-4.17v-12l-22.67.21V39.85c0,1.24,0,2.34,0,3.32a21.15,21.15,0,0,1-.17,2.37c.77-.09,1.63-.15,2.56-.17s1.75-.06,2.44-.11V49Z"/><path d="M182.83,30.06V24.45h24.59v5.41Z"/><path d="M237.75,31.71a8,8,0,0,0-.85-4.25,3.74,3.74,0,0,0-2.57-1.61,19.23,19.23,0,0,0-4.25-.17l-4,.14V40.06c0,1.23,0,2.32,0,3.25a20.32,20.32,0,0,1-.18,2.3l11.78-.14a13,13,0,0,0,4.8-1,7,7,0,0,0,3.35-3.19,12.94,12.94,0,0,0,1.23-6.16h3L249.67,49H214.06V46a5.64,5.64,0,0,0,3.25-1,4,4,0,0,0,1.27-2.47,26.4,26.4,0,0,0,.27-4.17V9.93c0-1,0-2,.07-2.91s.09-1.75.14-2.43l-2.54.14-2.46.13V1.1h33.41l.35,12.39h-3a11.52,11.52,0,0,0-1.26-6,6.18,6.18,0,0,0-3.29-2.74,12.39,12.39,0,0,0-4.35-.61l-4.79.13a5.88,5.88,0,0,0-3.22.72,3.52,3.52,0,0,0-1.44,2.33,21.7,21.7,0,0,0-.34,4.35V22.46h11.3L237,16.57h3.76V31.71Z"/><path d="M293.83,50,268.36,16.16c-.5-.59-1-1.21-1.44-1.85l-1.44-2h-.07L265.62,39c0,1.15,0,2.29,0,3.43s-.08,2.19-.18,3.15c.78-.09,1.64-.15,2.57-.17s1.75-.06,2.43-.11V49H256.85V46a4.75,4.75,0,0,0,2.92-.76,3.8,3.8,0,0,0,1.36-2,9.57,9.57,0,0,0,.38-2.88V7c0-.91,0-1.71.07-2.39l-2.43.14-2.36.13V1.1h9l24.11,31.7c.77,1,1.47,1.94,2.09,2.81s1.22,1.69,1.81,2.46h.07L294,9.93c0-1,0-2,.07-2.91s.09-1.75.13-2.43l-2.6.14-2.39.13V1.1h13.55v3a5,5,0,0,0-3.18.92,3.9,3.9,0,0,0-1.23,2.47,29.68,29.68,0,0,0-.24,4.21L298,50Z"/><path d="M309.17,46a5.62,5.62,0,0,0,3.25-1,3.9,3.9,0,0,0,1.27-2.47,26.4,26.4,0,0,0,.27-4.17V9.93c0-1,0-2,.07-2.91s.09-1.75.14-2.43l-2.53.14-2.47.13V1.1L326.63,1a37.17,37.17,0,0,1,11.44,1.64,24.37,24.37,0,0,1,8.63,4.76A20.35,20.35,0,0,1,352.11,15,25.65,25.65,0,0,1,354,24.93a25.8,25.8,0,0,1-1.57,8.9,21.87,21.87,0,0,1-4.83,7.7A23.88,23.88,0,0,1,339.37,47,30.16,30.16,0,0,1,327.73,49H309.17Zm12.05-6.1c0,1.23,0,2.33,0,3.29a20.89,20.89,0,0,1-.17,2.33c1,0,1.92,0,2.87,0s1.82,0,2.57,0h1.61A17.22,17.22,0,0,0,335.6,44a16.13,16.13,0,0,0,5.58-4.38,19.81,19.81,0,0,0,3.5-6.51,25.62,25.62,0,0,0,1.19-7.87,26.6,26.6,0,0,0-2.19-11.37,15.51,15.51,0,0,0-6.6-7.12,22.81,22.81,0,0,0-11-2.53A5.46,5.46,0,0,0,322.8,5a3.66,3.66,0,0,0-1.3,2.43,25.32,25.32,0,0,0-.28,4.18Z"/><path d="M0,128.19a5.62,5.62,0,0,0,3.25-1,3.9,3.9,0,0,0,1.27-2.46,26.62,26.62,0,0,0,.27-4.18V92.1c0-1,0-2,.07-2.91S5,87.45,5,86.76l-2.54.14L0,87V83.27l17.46-.07A37.17,37.17,0,0,1,28.9,84.84a24.53,24.53,0,0,1,8.63,4.76,20.35,20.35,0,0,1,5.41,7.57A26.88,26.88,0,0,1,43.21,116a21.78,21.78,0,0,1-4.83,7.7,23.88,23.88,0,0,1-8.18,5.45,30.16,30.16,0,0,1-11.64,2H0Zm12.05-6.09c0,1.23,0,2.32,0,3.28a20.7,20.7,0,0,1-.17,2.33c1,0,1.91,0,2.87,0s1.82,0,2.57,0H18.9a17.22,17.22,0,0,0,7.53-1.58A16.13,16.13,0,0,0,32,121.82a19.86,19.86,0,0,0,3.5-6.5,25.69,25.69,0,0,0,1.19-7.88,26.63,26.63,0,0,0-2.19-11.37A15.53,15.53,0,0,0,27.9,89a22.74,22.74,0,0,0-11-2.53,5.38,5.38,0,0,0-3.28.79,3.62,3.62,0,0,0-1.3,2.43,25.19,25.19,0,0,0-.28,4.17Z"/><path d="M74.3,113.88a8,8,0,0,0-.86-4.25A3.73,3.73,0,0,0,70.87,108a19.14,19.14,0,0,0-4.24-.17l-4,.14v14.24c0,1.23,0,2.32,0,3.25a18.33,18.33,0,0,1-.17,2.3l11.78-.14a12.51,12.51,0,0,0,4.79-1,7,7,0,0,0,3.36-3.19,12.94,12.94,0,0,0,1.23-6.16h3l-.41,13.9H50.61v-3a5.64,5.64,0,0,0,3.25-1,3.89,3.89,0,0,0,1.26-2.46,25.32,25.32,0,0,0,.28-4.18V92.1c0-1,0-2,.07-2.91s.09-1.74.13-2.43l-2.53.14L50.61,87V83.27H84l.34,12.39h-3a11.35,11.35,0,0,0-1.27-6A6.12,6.12,0,0,0,76.8,87a12.39,12.39,0,0,0-4.35-.62l-4.79.14a5.88,5.88,0,0,0-3.22.72A3.5,3.5,0,0,0,63,89.53a21.83,21.83,0,0,0-.34,4.35v10.75H74l-.41-5.89h3.76v15.14Z"/><path d="M120.45,98.06a17.4,17.4,0,0,0-1.78-6.3,11.67,11.67,0,0,0-4-4.49,10.83,10.83,0,0,0-6.3-1.6,8.49,8.49,0,0,0-6.09,2.12,7.18,7.18,0,0,0-.76,9.62,14.29,14.29,0,0,0,4.08,3.25q2.57,1.44,5.78,2.88c1.74.73,3.49,1.55,5.28,2.46a29.07,29.07,0,0,1,4.86,3.12A13.36,13.36,0,0,1,125,113.3a11.88,11.88,0,0,1,1.3,5.71,12.12,12.12,0,0,1-2,6.85,13.28,13.28,0,0,1-5.64,4.73,20.88,20.88,0,0,1-8.87,1.71,23.62,23.62,0,0,1-6.2-.89,22.66,22.66,0,0,1-5.92-2.54l.34,2.88H93.88l-.27-15.06H96.9q.54,6,4.28,9a13.66,13.66,0,0,0,8.93,3.05,11.36,11.36,0,0,0,4.73-1,8,8,0,0,0,3.35-2.74,7.18,7.18,0,0,0,1.23-4.18,7,7,0,0,0-1.67-4.72,14.84,14.84,0,0,0-4.25-3.29q-2.56-1.36-5.37-2.6c-1.88-.82-3.69-1.69-5.45-2.6a26.92,26.92,0,0,1-4.76-3.15,13.29,13.29,0,0,1-3.35-4.22,12.45,12.45,0,0,1-1.24-5.71,13,13,0,0,1,.69-4,11.62,11.62,0,0,1,6.81-7.16,18.52,18.52,0,0,1,7.16-1.2,25.81,25.81,0,0,1,5.85.76,16.34,16.34,0,0,1,5.93,2.67l-.28-2.88h4.11V98.06Z"/><path d="M149.62,86.28a5.3,5.3,0,0,0-3.22.93,3.93,3.93,0,0,0-1.3,2.46,26.43,26.43,0,0,0-.27,4.21V122c0,1.23,0,2.34,0,3.32a20.58,20.58,0,0,1-.18,2.36c.78-.09,1.64-.15,2.57-.17s1.75-.06,2.43-.1v3.76H132.78v-3a5.64,5.64,0,0,0,3.25-1,4,4,0,0,0,1.27-2.46,26.62,26.62,0,0,0,.27-4.18V92.1c0-1,0-2,.07-2.91s.09-1.74.14-2.43l-2.54.14-2.46.13V83.27h16.84Z"/><path d="M178.79,132.3a24.34,24.34,0,0,1-12.25-3,20.63,20.63,0,0,1-8.15-8.46,26.77,26.77,0,0,1-2.88-12.7A30.6,30.6,0,0,1,157,98.74a26.3,26.3,0,0,1,4.46-8.35,21.52,21.52,0,0,1,7.46-6,23.26,23.26,0,0,1,10.44-2.23,29.28,29.28,0,0,1,4.73.41,29.65,29.65,0,0,1,4.82,1.24,21.92,21.92,0,0,1,4.28,2l-.27-3.15h4.25V98.4H194a14.17,14.17,0,0,0-2.3-7,12.68,12.68,0,0,0-5-4.31A15.31,15.31,0,0,0,180,85.67a13.72,13.72,0,0,0-6.61,1.6,16.25,16.25,0,0,0-5.17,4.46,21.18,21.18,0,0,0-3.39,6.67,27.41,27.41,0,0,0-1.2,8.22,28.3,28.3,0,0,0,2.09,11.19,18.08,18.08,0,0,0,5.92,7.71,14.8,14.8,0,0,0,9,2.81,23.88,23.88,0,0,0,3.6-.31,25.21,25.21,0,0,0,3.9-1,14.94,14.94,0,0,0,3.53-1.68v-7.67q0-1.71,0-3.39c0-1.12,0-2.15,0-3.11l-2.47.13-2.39.14v-3.76h16.36v3a4.25,4.25,0,0,0-2.63.75,4.2,4.2,0,0,0-1.44,1.88,9.16,9.16,0,0,0-.58,2.4,20.08,20.08,0,0,0-.14,2.36v10.69H196.6a14.91,14.91,0,0,0-3.36.44,35.35,35.35,0,0,0-4.31,1.34,32.84,32.84,0,0,1-10.14,1.71Z"/><path d="M245.28,132.16,219.81,98.33c-.5-.59-1-1.21-1.44-1.85s-.93-1.3-1.43-2h-.07l.2,26.64q0,1.71,0,3.42c0,1.14-.08,2.19-.17,3.15.77-.09,1.63-.15,2.56-.17s1.75-.06,2.44-.1v3.76H208.31v-3a4.79,4.79,0,0,0,2.91-.75,3.84,3.84,0,0,0,1.37-2,9.92,9.92,0,0,0,.37-2.88V89.16c0-.92,0-1.71.07-2.4l-2.43.14-2.36.13V83.27h9l24.1,31.7c.78,1,1.47,1.94,2.09,2.81s1.22,1.69,1.81,2.47h.07l.07-28.15c0-1,0-2,.07-2.91s.09-1.74.14-2.43L243,86.9l-2.39.13V83.27h13.56v3a5.13,5.13,0,0,0-3.19.93,3.87,3.87,0,0,0-1.23,2.46,29.68,29.68,0,0,0-.24,4.21l-.07,38.28Z"/></g></g></svg>