<svg xmlns="http://www.w3.org/2000/svg" viewBox="0 0 1002.95 477.95"><defs><style>.cls-1{fill:none;stroke:#000;stroke-miterlimit:10;stroke-width:9.95px;}</style></defs><g id="Layer_2" data-name="Layer 2"><g id="Layer_1-2" data-name="Layer 1"><path d="M66.16,192v-5.09q5.85-.3,8-2.69a10.38,10.38,0,0,0,2.39-6.63q.22-4.23.23-9.63V101.36q0-3.08.15-5.93c.11-1.9.21-3.62.31-5.16l-5.54.31-5.55.3V84.1h34.67v5.09c-3.81.1-6.45,1-7.94,2.62a10.35,10.35,0,0,0-2.46,6.62c-.16,2.78-.23,6-.23,9.71v25.58h55.15V101.36c0-2,.06-4,.16-5.93s.2-3.62.31-5.16l-5.55.31-5.55.3V84.1h34.67v5.09c-3.8.1-6.45,1-7.93,2.62A10.36,10.36,0,0,0,159,98.43c-.15,2.78-.23,6-.23,9.71v65.48q0,4.17-.08,7.17a41.83,41.83,0,0,1-.38,5l5.54-.31,5.55-.31V192H134.72v-5.09q5.86-.3,8-2.69a10.43,10.43,0,0,0,2.38-6.63c.16-2.82.23-6,.23-9.63v-28l-55.15.62v33.12q0,4.17-.08,7.17a41.57,41.57,0,0,1-.39,5l5.55-.31,5.55-.31V192Z"/><path d="M221,89.19c-3.8.1-6.45,1-7.94,2.62a10.35,10.35,0,0,0-2.46,6.62c-.16,2.78-.23,6-.23,9.71v65.48q0,4.17-.08,7.17a39.61,39.61,0,0,1-.39,5l5.55-.31,5.55-.31V192H186.34v-5.09q5.85-.3,8-2.69a10.38,10.38,0,0,0,2.39-6.63q.22-4.23.23-9.63V101.36q0-3.08.15-5.93c.11-1.9.21-3.62.31-5.16l-5.54.31-5.55.3V84.1H221Z"/><path d="M287.72,194.42q-15.41,0-27.27-6.47A45.49,45.49,0,0,1,242,169.31q-6.63-12.17-6.62-29A69.89,69.89,0,0,1,238.65,119a59.26,59.26,0,0,1,10-18.87,48.68,48.68,0,0,1,16.8-13.48q10.1-5,23.5-5a64.66,64.66,0,0,1,11.24,1,66.16,66.16,0,0,1,11,2.93,54.25,54.25,0,0,1,9.63,4.54l-.62-7.39h8.48V118h-5.55A32.33,32.33,0,0,0,318,101.59a29.83,29.83,0,0,0-11.79-10.24A36.21,36.21,0,0,0,290,87.8a33.6,33.6,0,0,0-15.34,3.62,39.89,39.89,0,0,0-12.63,10.17,48.48,48.48,0,0,0-8.55,15.49,60,60,0,0,0-3.08,19.72,61.17,61.17,0,0,0,5.24,25.88,43,43,0,0,0,14.56,17.88A36.76,36.76,0,0,0,291.73,187a52.68,52.68,0,0,0,8.71-.77,47.26,47.26,0,0,0,17.64-6.93V145.58l-5.4.31-5.39.31v-6.78h34.82v5.08a9.15,9.15,0,0,0-6.62,2.24,12.16,12.16,0,0,0-3.24,5.39,27.61,27.61,0,0,0-1.08,6.16c-.1,2-.15,3.52-.15,4.55v23.57h-4.16a34.29,34.29,0,0,0-6.78.93,64.68,64.68,0,0,0-9.86,3.08,58.16,58.16,0,0,1-11.09,2.93A69.44,69.44,0,0,1,287.72,194.42Z"/><path d="M353.82,192v-5.09q5.85-.3,8-2.69a10.38,10.38,0,0,0,2.39-6.63c.16-2.82.23-6,.23-9.63V101.36q0-3.08.16-5.93t.3-5.16l-5.54.31-5.55.3V84.1h34.67v5.09c-3.8.1-6.45,1-7.94,2.62a10.35,10.35,0,0,0-2.46,6.62c-.16,2.78-.23,6-.23,9.71v25.58H433V101.36q0-3.08.15-5.93c.1-1.9.21-3.62.31-5.16l-5.55.31-5.54.3V84.1h34.66v5.09c-3.8.1-6.44,1-7.93,2.62a10.41,10.41,0,0,0-2.47,6.62c-.15,2.78-.23,6-.23,9.71v65.48c0,2.78,0,5.17-.08,7.17a41.83,41.83,0,0,1-.38,5l5.55-.31,5.54-.31V192H422.39v-5.09q5.85-.3,8-2.69a10.49,10.49,0,0,0,2.39-6.63q.22-4.23.23-9.63v-28l-55.16.62v33.12q0,4.17-.08,7.17a41.83,41.83,0,0,1-.38,5l5.54-.31,5.55-.31V192Z"/><path d="M473.39,148.05V137.26h54.7v10.17Z"/><path d="M598,152.05q0-6.78-1.85-9.7a8,8,0,0,0-5.86-3.55,56.33,56.33,0,0,0-10.63-.31l-11.25.47v35.28c0,2.77,0,5.14-.07,7.09a39,39,0,0,1-.39,4.93l29.43-.46a31.79,31.79,0,0,0,11.71-2.24,15.3,15.3,0,0,0,7.7-7.32q2.77-5.24,2.78-14.33h5.24L623.92,192h-79.5v-5.09q5.85-.3,8-2.69a10.44,10.44,0,0,0,2.39-6.63q.23-4.23.23-9.63V101.36q0-3.08.15-5.93c.11-1.9.21-3.62.31-5.16l-5.54.31-5.55.3V84.1h74.11l.77,27h-5.08q0-9.09-2.78-13.79A13.78,13.78,0,0,0,604,91a29.89,29.89,0,0,0-10.55-1.46l-13.26.31Q574.46,90,572,92a8.84,8.84,0,0,0-3,5.93,78.29,78.29,0,0,0-.54,10.25v24.65l29,.16-1.08-13.25h6.78v32.35Z"/><path d="M724.54,194.42l-61.48-82.58q-1.39-1.84-2.7-3.62t-2.7-3.62h-.15l.46,65.94v7.71c0,2.57-.1,5.08-.31,7.55l5.55-.31,5.55-.31V192h-28.2v-5.09q4.77,0,6.86-2.08a9.74,9.74,0,0,0,2.7-4.93,25.33,25.33,0,0,0,.61-5.16l.16-74.11V90.27l-5.09.31-5.24.3V84.1H658.9l57.78,77.35q2,2.63,3.93,5.24c1.28,1.75,2.59,3.49,3.93,5.24h.15l.15-70.57q0-3.08.16-5.93c.1-1.9.2-3.62.31-5.16l-5.55.31-5.55.3V84.1h28.35v5.09c-3.8.1-6.42,1-7.86,2.62a10.27,10.27,0,0,0-2.31,6.62c-.1,2.78-.15,6-.15,9.71l-.31,86.28Z"/><path d="M757.66,186.87q5.85-.3,8-2.69a10.38,10.38,0,0,0,2.39-6.63q.23-4.23.23-9.63V101.36q0-3.08.16-5.93t.3-5.16l-5.54.31-5.55.3V84.1L794,84a94,94,0,0,1,25.43,3.24,55.63,55.63,0,0,1,19.95,9.93,44.27,44.27,0,0,1,12.94,16.95q4.54,10.26,4.55,24.12a56.74,56.74,0,0,1-3.7,20.33A48.93,48.93,0,0,1,842.1,175.7a53.22,53.22,0,0,1-18.42,11.87q-11,4.4-25.5,4.39H757.66Zm24-13.09c0,2.77,0,5.14-.08,7.09a39,39,0,0,1-.39,4.93q4.17.15,7.63.23c2.31.05,4.26.07,5.86.07h3a43.17,43.17,0,0,0,18.11-3.69,41,41,0,0,0,13.86-10.25,46.75,46.75,0,0,0,8.94-15.41,56.83,56.83,0,0,0,3.16-19.18q0-14.64-5.32-25.35a37.73,37.73,0,0,0-16.25-16.64q-11-5.92-27.89-5.93-5.7,0-7.94,2.31a9.72,9.72,0,0,0-2.46,6.47c-.16,2.78-.23,6-.23,9.71Z"/><path d="M66.16,371.77c3.9-.21,6.57-1.1,8-2.7a10.37,10.37,0,0,0,2.39-6.62q.22-4.24.23-9.63V286.26c0-2.06,0-4,.15-5.94s.21-3.62.31-5.16l-5.54.31-5.55.31V269l36.36-.16a93.91,93.91,0,0,1,25.42,3.24,55.61,55.61,0,0,1,20,9.94,44.37,44.37,0,0,1,12.94,17q4.54,10.25,4.55,24.11a56.76,56.76,0,0,1-3.7,20.34,49,49,0,0,1-11.1,17.18,53.16,53.16,0,0,1-18.41,11.86q-11,4.4-25.5,4.39H66.16Zm24-13.1q0,4.17-.08,7.09a40.78,40.78,0,0,1-.39,4.93q4.17.15,7.63.23c2.31.05,4.26.08,5.85.08h3a43,43,0,0,0,18.1-3.7,40.94,40.94,0,0,0,13.87-10.25,46.81,46.81,0,0,0,8.94-15.4,56.89,56.89,0,0,0,3.16-19.19q0-14.62-5.32-25.34a37.6,37.6,0,0,0-16.26-16.64q-10.94-5.94-27.88-5.93c-3.81,0-6.45.77-7.94,2.31a9.7,9.7,0,0,0-2.46,6.47c-.16,2.77-.23,6-.23,9.71Z"/><path d="M233,337q0-6.78-1.85-9.71a8,8,0,0,0-5.86-3.54,55.49,55.49,0,0,0-10.63-.31l-11.25.46v35.28q0,4.17-.07,7.09a42.93,42.93,0,0,1-.39,4.93l29.43-.46a32,32,0,0,0,11.71-2.23,15.42,15.42,0,0,0,7.7-7.32q2.77-5.24,2.78-14.33h5.24l-.93,30h-79.5v-5.08c3.9-.21,6.57-1.1,8-2.7a10.43,10.43,0,0,0,2.39-6.62q.23-4.24.23-9.63V286.26c0-2.06.05-4,.15-5.94s.21-3.62.31-5.16l-5.55.31-5.54.31V269h74.11l.77,27H249.2q0-9.09-2.77-13.79a13.78,13.78,0,0,0-7.47-6.32,30.14,30.14,0,0,0-10.56-1.46l-13.25.31q-5.7.15-8.16,2.16a8.79,8.79,0,0,0-3,5.93,78.18,78.18,0,0,0-.54,10.25v24.65l29,.15-1.08-13.25h6.78V337Z"/><path d="M335.79,301.66a38.6,38.6,0,0,0-3.54-14,26.84,26.84,0,0,0-8.94-10.78q-5.85-4.17-14.94-4.16-9.56,0-14.64,5.39a17.83,17.83,0,0,0-5.08,12.63,16.28,16.28,0,0,0,3.7,10.87,34.29,34.29,0,0,0,9.62,7.7q5.94,3.31,12.56,6.39,5.85,2.63,11.71,5.63a62.07,62.07,0,0,1,10.63,6.85,29.73,29.73,0,0,1,7.63,9.17A26.56,26.56,0,0,1,347.35,350a27.36,27.36,0,0,1-4.24,15.1,28.43,28.43,0,0,1-12.25,10.4q-8,3.78-19.56,3.78a54.9,54.9,0,0,1-14.33-2,43.6,43.6,0,0,1-13.1-5.86l.77,6.63h-8l-.93-32.82h6q.78,13.56,9.4,20.57t20.8,7a27.28,27.28,0,0,0,11.1-2.24,18.87,18.87,0,0,0,8.09-6.54,19.86,19.86,0,0,0-.7-22,33.58,33.58,0,0,0-9.55-8q-5.87-3.39-12.48-6.47-5.87-2.62-11.56-5.55a61.12,61.12,0,0,1-10.4-6.7,29.71,29.71,0,0,1-7.55-9A26.14,26.14,0,0,1,276,293.65,30,30,0,0,1,277.4,285a25,25,0,0,1,14.41-15.79q6.07-2.7,15.48-2.7a61.57,61.57,0,0,1,13.17,1.62,36.14,36.14,0,0,1,13.64,6.24l-.62-6.62h7.86v33.89Z"/><path d="M397.27,274.08q-5.7.17-7.94,2.62a10.38,10.38,0,0,0-2.46,6.63q-.22,4.16-.23,9.71v65.48q0,4.16-.08,7.16a41.49,41.49,0,0,1-.38,5l5.54-.31,5.55-.31v6.78H362.6v-5.08c3.9-.21,6.57-1.1,8-2.7a10.37,10.37,0,0,0,2.39-6.62c.16-2.83.23-6,.23-9.63V286.26c0-2.06,0-4,.16-5.94s.2-3.62.31-5.16l-5.55.31-5.55.31V269h34.67Z"/><path d="M464,379.32q-15.42,0-27.28-6.47a45.49,45.49,0,0,1-18.48-18.65q-6.63-12.17-6.63-29a69.85,69.85,0,0,1,3.31-21.34,59,59,0,0,1,10-18.88,48.65,48.65,0,0,1,16.79-13.48q10.09-5,23.5-5a66.92,66.92,0,0,1,22.26,3.93,53.62,53.62,0,0,1,9.63,4.55l-.61-7.4H505V302.9h-5.55a32.27,32.27,0,0,0-5.16-16.41,29.89,29.89,0,0,0-11.78-10.25,36.38,36.38,0,0,0-16.18-3.54A33.53,33.53,0,0,0,451,276.32a39.66,39.66,0,0,0-12.64,10.17A48.62,48.62,0,0,0,429.78,302a60.29,60.29,0,0,0-3.08,19.72,61.37,61.37,0,0,0,5.24,25.89,43,43,0,0,0,14.56,17.87A36.71,36.71,0,0,0,468,371.92a51.45,51.45,0,0,0,8.71-.77,47.26,47.26,0,0,0,17.64-6.93V330.48l-5.39.3-5.4.31v-6.78h34.83v5.09q-4.32,0-6.63,2.23a12.05,12.05,0,0,0-3.23,5.39,26.5,26.5,0,0,0-1.08,6.17c-.11,2-.16,3.52-.16,4.54v23.58h-4.16a35,35,0,0,0-6.78.92,66.18,66.18,0,0,0-9.86,3.08,58,58,0,0,1-11.09,2.93A68.24,68.24,0,0,1,464,379.32Z"/><path d="M614.37,379.32l-61.48-82.59q-1.39-1.85-2.7-3.62t-2.7-3.62h-.15l.46,65.95v7.7q0,3.86-.31,7.55l5.55-.31,5.55-.31v6.78h-28.2v-5.08c3.19,0,5.47-.69,6.86-2.08a9.82,9.82,0,0,0,2.7-4.93,25.33,25.33,0,0,0,.61-5.16l.16-74.12V275.16l-5.09.31-5.24.31V269h18.34l57.78,77.35c1.33,1.74,2.64,3.49,3.93,5.23s2.59,3.5,3.93,5.24h.15l.15-70.56c0-2.06.05-4,.16-5.94s.2-3.62.31-5.16l-5.55.31-5.55.31V269h28.35v5.08q-5.7.17-7.86,2.62a10.3,10.3,0,0,0-2.31,6.63q-.15,4.16-.15,9.71l-.31,86.28Z"/><rect class="cls-1" x="4.97" y="4.97" width="993" height="468"/></g></g></svg>