<svg xmlns="http://www.w3.org/2000/svg" viewBox="0 0 316.8 105.88"><defs><style>.cls-1{fill:#fff;fill-rule:evenodd;}.cls-2{fill:none;stroke:#fff;stroke-miterlimit:2.61;stroke-width:5.88px;}</style></defs><g id="Layer_2" data-name="Layer 2"><g id="Layer_2-2" data-name="Layer 2"><path class="cls-1" d="M93.06,46.6c-.16,15.57-9.34,41-37.53,40.87-21,0-29.79-13.78-29.94-29-.13-22.14,14.06-41.14,37.54-41.08,20.55.05,30.09,13.35,29.93,29.23Zm-47,13c0,6.88,3.43,11.4,10.28,11.41,12.29,0,15.93-18,16-25.42,0-6-3.44-11.33-10.39-11.33-8.5,0-15.85,9-15.84,25.34Z"/><path class="cls-1" d="M147.77,53.34H122.7c-3.72,0-8.51,1.9-10.5,11.75l-4.32,21H89.55L99.49,38h15.87v4.95c2.3-2.56,7.14-8.62,16.82-5.59l-2,9.66c5.84-8.55,14.45-10.33,24.32-10.37,12.58,0,25.06,5.15,22.56,17.32l-5.28,25.39a9.13,9.13,0,0,0,.73,6.7H152.65V82.94c-11.53,8.62-29.6,4.66-29.58-10.13,0-12.25,11.7-14.93,14.41-15.44,12.64-2.38,21.3-2.14,22.12-5.81,1-4.53-10.95-5-11.83,1.78Zm-6.38,17.87c0,5.82,12.08,6.11,15.1-7.22-7.25,2.29-15.11,2.74-15.1,7.22Z"/><polygon class="cls-1" points="209 19.27 195.12 86.04 176.38 86.04 190.25 19.27 209 19.27 209 19.27"/><path class="cls-1" d="M276.68,51.8C284.33,47.49,287,42.06,287,34.72c-.1-16.88-18.73-15.43-26.87-15.43H234.94l-5.29,25.58h-15.4l-2.73,13.07H227L221.14,86h37c21,0,25.45-15.06,25.46-20.87,0-7.79-3.12-10.25-6.95-13.37ZM258.67,69h-14.4l2.3-11h14c6.34,0,5.55,11-1.93,11Zm3.17-24.12H249.27l2.06-9.94h12.25c7.67,0,6.18,9.94-1.74,9.94Z"/><path class="cls-2" d="M263.74,102.94a50,50,0,1,0,0-100H53.06a50,50,0,1,0,0,100Z"/></g></g></svg>