<svg xmlns="http://www.w3.org/2000/svg" viewBox="0 0 175.75 58.02"><defs><style>.cls-1,.cls-6{fill:#fff;}.cls-1,.cls-2,.cls-3,.cls-4,.cls-5,.cls-6,.cls-7{fill-rule:evenodd;}.cls-2,.cls-3,.cls-4,.cls-5,.cls-7{fill:#231f20;}.cls-3,.cls-4,.cls-5,.cls-7{stroke:#231f20;}.cls-3,.cls-4,.cls-6,.cls-7{stroke-miterlimit:2.61;}.cls-3{stroke-width:0.15px;}.cls-4{stroke-width:0.13px;}.cls-5{stroke-linejoin:bevel;stroke-width:0.16px;}.cls-6{stroke:#fff;}.cls-6,.cls-7{stroke-width:0.07px;}</style></defs><g id="Layer_2" data-name="Layer 2"><g id="Layer_2-2" data-name="Layer 2"><path class="cls-1" d="M147,0a29,29,0,0,1,1.24,58H27.53A29,29,0,0,1,28.78,0Z"/><path class="cls-2" d="M28.78,2.35H147A26.52,26.52,0,0,1,173.4,29v.1A26.52,26.52,0,0,1,147,55.69H28.78A26.53,26.53,0,0,1,2.34,29.07V29A26.53,26.53,0,0,1,28.78,2.35Z"/><path class="cls-1" d="M55.48,20.6,49.61,46.77H60.52l2.61-13.51A6.12,6.12,0,0,1,67.49,29h14.7a3.93,3.93,0,0,1,4.19-2.67c2.92.17,2.08,2.67-.2,3.18-6.31,1.38-18,.67-17.78,10.64.1,4.59,4.8,7.19,9.49,7.26a13.33,13.33,0,0,0,6.88-1.69l.3,1h11a3,3,0,0,1-.51-1,3.38,3.38,0,0,1-.17-1.18L98.29,30.9c1.25-5.92.17-10.44-10.84-11-4.26-.24-12.58,1.42-14.82,5.71l1.51-4.8c-5-2.7-9.43,2.44-9.43,2.44l-.57-2.6Z"/><polygon class="cls-1" points="116.17 10.49 105.91 10.49 97.75 46.77 108.62 46.77 116.17 10.49 116.17 10.49 116.17 10.49"/><path class="cls-1" d="M148.51,10.46l-18,0L127.61,24h-8.45l-1.45,7.43h8.22l-3.52,15.37h21c14.76,0,17.11-13.61,10.57-18.34,6.64-2.77,7.58-18-5.44-18Z"/><path class="cls-3" d="M136.84,31.64l-1.31,6.18h5.37c7,0,6.91-6.18,1.71-6.18Z"/><path class="cls-4" d="M139.45,19l-1.14,5.75h5c6.48,0,6.44-5.75,1.61-5.75Z"/><path class="cls-5" d="M86.62,35c-15.27,1.52-2.45,11.59,0,0Z"/><path class="cls-6" d="M14.39,32.07c.53-14.15,10.4-22.46,20.7-22.16,8.89-.1,17,4.8,17,14.8-.2,13.81-8.62,22.66-20.63,22.66-7.42.58-16.85-3.95-17.11-15.3Z"/><path class="cls-7" d="M25.79,31.37c.2-9,5.77-12.7,8.66-12.7,3.45.07,6.57,2.09,6.21,7.63-.21,6.15-4.47,12.81-9,12.44-3.08.16-5.87-1.9-5.87-7.37Z"/><path class="cls-1" d="M163.31,34.19a4.94,4.94,0,1,0-4.91-4.93,4.91,4.91,0,0,0,4.91,4.93Zm0-1.16a3.78,3.78,0,1,1,3.75-3.77A3.64,3.64,0,0,1,163.31,33Z"/><path class="cls-1" d="M164.29,29.6a1.51,1.51,0,0,0,1.61-1.39c.21-1.36-.56-1.57-1.74-1.57h-2.48l-.81,5.13H162l.34-2.17h.8l.8,2.17h1.24l-.9-2.17Zm-1.81-.77.2-1.3h1.1c.5,0,1.16,0,1.08.53s-.45.77-1,.77Z"/></g></g></svg>