<svg xmlns="http://www.w3.org/2000/svg" xmlns:xlink="http://www.w3.org/1999/xlink" viewBox="0 0 90.51 30.91"><defs><style>.cls-1{fill:none;}.cls-2,.cls-6{fill:#fff;}.cls-3{clip-path:url(#clip-path);}.cls-4{fill:url(#linear-gradient);}.cls-5{clip-path:url(#clip-path-2);}.cls-6{fill-rule:evenodd;}</style><clipPath id="clip-path"><path class="cls-1" d="M76.22.38h-62C6.58.38.38,7.14.38,15.43A15.74,15.74,0,0,0,4.86,26.51a13.26,13.26,0,0,0,9.43,4H76.22c7.67,0,13.9-6.76,13.9-15.07S83.93.38,76.29.38h-.07"/></clipPath><linearGradient id="linear-gradient" x1="-79.87" y1="7652.81" x2="-79.87" y2="7658.71" gradientTransform="matrix(0, 15.21, 15.21, 0, -116426.47, 1230.56)" gradientUnits="userSpaceOnUse"><stop offset="0" stop-color="#1e196a"/><stop offset="0.5" stop-color="#006cb7"/><stop offset="1" stop-color="#1f1b6c"/></linearGradient><clipPath id="clip-path-2"><path class="cls-2" d="M5.14,26.27A15.36,15.36,0,0,1,.77,15.45a15.3,15.3,0,0,1,4-10.39A13,13,0,0,1,14.29.77H76.22a13,13,0,0,1,9.55,4.29,15.3,15.3,0,0,1,4,10.39,15.31,15.31,0,0,1-4,10.4,13,13,0,0,1-9.55,4.3H14.28a12.84,12.84,0,0,1-9.14-3.88M14.29,0C6.39,0,0,7,0,15.45A16.1,16.1,0,0,0,4.59,26.81a13.63,13.63,0,0,0,9.66,4.1h62c7.91,0,14.27-6.95,14.29-15.46S84.13,0,76.22,0Z"/></clipPath></defs><g id="Layer_2" data-name="Layer 2"><g id="Layer_2-2" data-name="Layer 2"><g class="cls-3"><rect class="cls-4" x="0.38" y="0.38" width="89.74" height="30.12"/></g><path class="cls-2" d="M5.14,26.27A15.36,15.36,0,0,1,.77,15.45a15.3,15.3,0,0,1,4-10.39A13,13,0,0,1,14.29.77H76.22a13,13,0,0,1,9.55,4.29,15.3,15.3,0,0,1,4,10.39,15.31,15.31,0,0,1-4,10.4,13,13,0,0,1-9.55,4.3H14.28a12.84,12.84,0,0,1-9.14-3.88M14.29,0C6.39,0,0,7,0,15.45A16.1,16.1,0,0,0,4.59,26.81a13.63,13.63,0,0,0,9.66,4.1h62c7.91,0,14.27-6.95,14.29-15.46S84.13,0,76.22,0Z"/><g class="cls-5"><rect class="cls-2" width="90.51" height="30.91"/></g><path class="cls-6" d="M84.07,18.61A2.59,2.59,0,1,0,81.49,16a2.58,2.58,0,0,0,2.58,2.59m0-.61a2,2,0,1,1,2-2,1.92,1.92,0,0,1-2,2M27.32,11.48h4.55l.3,1.36s2.31-2.69,5-1.27l-.79,2.51c1.18-2.24,5.56-3.11,7.8-3,5.8.32,6.36,2.69,5.71,5.79l-1.52,7.17a1.46,1.46,0,0,0,.09.62,1.74,1.74,0,0,0,.26.53H42.89l-.16-.53a7,7,0,0,1-3.62.88c-2.47,0-4.94-1.4-5-3.8-.12-5.23,6-4.85,9.36-5.58,1.2-.27,1.64-1.57.11-1.66a2.07,2.07,0,0,0-2.21,1.39H33.64a3.24,3.24,0,0,0-2.3,2.22L30,25.2H24.23ZM59.26,6.19l-4,19H49.57l4.28-19Zm17,0c6.85,0,6.36,8,2.86,9.42,3.44,2.48,2.21,9.61-5.56,9.61h-11l1.86-8.06H60.07l.76-3.89h4.45l1.54-7.06Zm-6.15,11.1h3c2.74,0,2.77,3.24-.9,3.24H69.45Zm1.38-6.64h2.88c2.55,0,2.56,3-.85,3H70.91ZM43.7,19c-1.29,6.08-8,.8,0,0m-38-1.5C6,10.08,11.16,5.72,16.58,5.88c4.68,0,9,2.51,9,7.75-.1,7.24-4.54,11.88-10.86,11.88-3.9.31-8.86-2.07-9-8m6-.37c.11-4.75,3-6.66,4.56-6.66,1.81,0,3.46,1.1,3.26,4-.1,3.22-2.35,6.71-4.73,6.52-1.63.09-3.09-1-3.09-3.86m72.89-.93a.79.79,0,0,0,.85-.73c.11-.71-.3-.82-.91-.82H83.21l-.42,2.68h.59l.19-1.13H84l.42,1.13h.66Zm-1-.4.11-.68h.58c.26,0,.6,0,.56.27s-.23.41-.53.41Z"/></g></g></svg>