<svg xmlns="http://www.w3.org/2000/svg" viewBox="0 0 500 500"><defs><style>.cls-1{fill:#f53100;}</style></defs><g id="Layer_2" data-name="Layer 2"><g id="Layer_1-2" data-name="Layer 1"><path class="cls-1" d="M472.56,250q0-6.15-.33-12.21L500,232.87l-9.24-52.57L463,185.21a221.81,221.81,0,0,0-8.33-23l24.37-14.13-26.6-46.22L428.07,116a225.93,225.93,0,0,0-15.66-18.7l18.13-21.68L389.78,41.33,371.67,63a222.89,222.89,0,0,0-21.08-12.25l9.63-26.54L310.22,6l-9.63,26.54a222.59,222.59,0,0,0-24-4.21V0H223.4V28.28a222.59,222.59,0,0,0-24,4.21L189.78,6l-50,18.26,9.63,26.54A222.89,222.89,0,0,0,128.33,63L110.22,41.33,69.46,75.65,87.59,97.33A225.93,225.93,0,0,0,71.93,116L47.52,101.89l-26.6,46.22,24.37,14.13a221.81,221.81,0,0,0-8.33,23L9.24,180.3,0,232.87l27.77,4.92q-.33,6.06-.33,12.21t.33,12.21L0,267.13,9.24,319.7,37,314.79a221.81,221.81,0,0,0,8.33,23L20.92,351.89l26.6,46.22L71.93,384a225.93,225.93,0,0,0,15.66,18.7L69.46,424.35l40.76,34.32L128.33,437a222.89,222.89,0,0,0,21.08,12.25l-9.63,26.54,50,18.26,9.63-26.54a222.59,222.59,0,0,0,24,4.21V500h53.2V471.72a222.59,222.59,0,0,0,24-4.21l9.63,26.54,50-18.26-9.63-26.54A222.89,222.89,0,0,0,371.67,437l18.11,21.67,40.76-34.32-18.13-21.68A225.93,225.93,0,0,0,428.07,384l24.41,14.14,26.6-46.22-24.37-14.13a221.81,221.81,0,0,0,8.33-23l27.72,4.91L500,267.13l-27.77-4.92Q472.56,256.15,472.56,250Z"/></g></g></svg>